<?xml version="1.0" encoding="UTF-8"?>
<svg width="8px" height="37px" viewBox="0 0 8 37" version="1.1" xmlns="http://www.w3.org/2000/svg" xmlns:xlink="http://www.w3.org/1999/xlink">
    <title>i</title>
    <g id="Page-1" stroke="none" stroke-width="1" fill="none" fill-rule="evenodd">
        <g id="Group-2" transform="translate(-2.000000, -14.070095)" fill="#000000" fill-rule="nonzero">
            <path d="M6.110076,21.5698006 C7.0265874,21.5698006 7.81580555,21.2388381 8.47773045,20.5769132 C9.13965535,19.9149883 9.4706178,19.1257702 9.4706178,18.2092588 C9.4706178,17.2927474 9.13965535,16.5035292 8.47773045,15.8416043 C7.81580555,15.1796794 7.0265874,14.848717 6.110076,14.848717 C5.1935646,14.848717 4.40434645,15.1796794 3.74242155,15.8416043 C3.08049665,16.5035292 2.7495342,17.2927474 2.7495342,18.2092588 C2.7495342,19.1257702 3.08049665,19.9149883 3.74242155,20.5769132 C4.40434645,21.2388381 5.1935646,21.5698006 6.110076,21.5698006 Z M8.4013545,51 L8.4013545,26.8651998 L3.8187975,26.8651998 L3.8187975,51 L8.4013545,51 Z" id="i"></path>
        </g>
    </g>
</svg>