<?xml version="1.0" encoding="UTF-8"?>
<svg width="18px" height="25px" viewBox="0 0 18 25" version="1.1" xmlns="http://www.w3.org/2000/svg" xmlns:xlink="http://www.w3.org/1999/xlink">
    <title>Stroke 114</title>
    <g id="Page-1" stroke="none" stroke-width="1" fill="none" fill-rule="evenodd" stroke-linecap="round">
        <g id="Artboard-Copy-3" transform="translate(-968.000000, -6819.000000)" stroke="#211816" stroke-width="1.157">
            <g id="Group-189" transform="translate(2.676201, -245.999645)">
                <g id="Group-128" transform="translate(61.884270, 7007.200945)">
                    <path d="M913.5504,81.5423 C913.5504,81.5423 913.4274,80.5173 912.2104,78.7423 C911.3944,77.5523 906.5964,71.2993 906.5964,71.2993 C905.5124,69.9743 904.8624,68.2743 904.8624,66.4213 C904.8624,62.1893 908.2564,58.7583 912.4434,58.7583 C916.6304,58.7583 920.0244,62.1893 920.0244,66.4213 C920.0244,68.2623 919.4044,69.9433 918.3344,71.2653 L914.6534,76.1293 C914.6534,76.1293 908.8304,70.5793 908.6194,66.4903 C908.6194,64.3673 910.3284,62.6233 912.4294,62.6233 C914.5304,62.6233 916.2334,64.3433 916.2334,66.4673 C916.2334,67.9193 915.3824,69.2083 914.2064,69.8623" id="Stroke-114"></path>
                </g>
            </g>
        </g>
    </g>
</svg>