<?xml version="1.0" encoding="UTF-8"?>
<svg width="22px" height="22px" viewBox="0 0 22 22" version="1.1" xmlns="http://www.w3.org/2000/svg" xmlns:xlink="http://www.w3.org/1999/xlink">
    <title>Stroke 116</title>
    <g id="Page-1" stroke="none" stroke-width="1" fill="none" fill-rule="evenodd" stroke-linecap="round">
        <g id="Artboard-Copy-3" transform="translate(-966.000000, -6760.000000)" stroke="#211816" stroke-width="1.157">
            <g id="Group-189" transform="translate(2.676201, -245.999645)">
                <g id="Group-128" transform="translate(61.884270, 7007.200945)">
                    <path d="M912.4393,19.95 C906.9523,19.95 902.5043,15.426 902.5043,9.938 C902.5043,4.45 906.9523,0 912.4393,0 C917.9263,0 922.1293,4.455 922.3753,9.938 C922.6893,16.971 913.0833,23.096 908.8513,12.975 C904.6203,2.853 910.6913,2.209 911.7953,2.945 C912.8993,3.681 912.7593,5.631 912.1633,6.073 C911.4413,6.61 910.4113,5.58 910.2063,6.404 C910.0923,6.859 911.2083,13.067 912.0713,13.711 C913.2123,14.562 913.5723,12.869 914.4893,12.996 C915.6843,13.16 917.5913,16.656 913.8193,16.656" id="Stroke-116"></path>
                </g>
            </g>
        </g>
    </g>
</svg>