<?xml version="1.0" encoding="UTF-8"?>
<svg width="125px" height="63px" viewBox="0 0 125 63" version="1.1" xmlns="http://www.w3.org/2000/svg" xmlns:xlink="http://www.w3.org/1999/xlink">
    <title>Group 84</title>
    <g id="Page-1" stroke="none" stroke-width="1" fill="none" fill-rule="evenodd">
        <g id="Artboard" transform="translate(-56.000000, -22.000000)" fill="#FFFFFF">
            <g id="Group-85" transform="translate(-21.542969, -69.000000)">
                <g id="Group-84" transform="translate(78.532769, 91.417917)">
                    <path d="M49.9977,36.3803895 C46.7317,35.9183895 44.7467,34.2723895 43.6557,32.9723895 C42.4717,31.5613895 42.0657,30.2683895 42.0487,30.2133895 L42.6907,30.0153895 C42.7527,30.2143895 44.2687,34.8903895 50.0917,35.7153895 L49.9977,36.3803895 Z" id="Fill-56"></path>
                    <path d="M78.421,15.7746895 C74.584,15.7746895 73.184,13.2836895 73.127,13.1776895 L73.569,12.9366895 C73.622,13.0316895 74.895,15.2706895 78.421,15.2706895 L78.421,15.7746895 Z" id="Fill-58"></path>
                    <path d="M82.6105,3.12748948 C80.8735,0.430489476 78.4695,0.503489476 78.3615,0.504489476 L78.3385,0.00148947565 C78.4475,-0.00451052435 81.1325,-0.0965105244 83.0345,2.85448948 L82.6105,3.12748948 Z" id="Fill-60"></path>
                    <polygon id="Fill-62" points="15.692 25.5463895 6.983 0.434389476 0 0.434389476 11.747 34.7363895 12.393 36.7063895 16.029 26.4693895 15.7 25.5223895"></polygon>
                    <polygon id="Fill-64" points="92.3146 21.1108895 92.3146 35.8968895 92.3146 36.1998895 95.4496 36.1998895 95.4496 35.8968895 95.4496 21.1108895 95.4496 20.8088895 92.3146 20.8088895"></polygon>
                    <polygon id="Fill-66" points="92.3142 15.7404895 95.4492 15.7404895 95.4492 3.59448948 92.3142 3.59448948"></polygon>
                    <path d="M73.0135,36.1999895 C73.8355,36.1999895 76.1535,36.2279895 76.1535,36.2279895 L76.1535,20.8079895 L73.0135,20.8079895 L73.0135,36.1999895 Z" id="Fill-68"></path>
                    <path d="M85.7267,23.6618895 C85.2367,23.0858895 84.6747,22.6098895 84.0407,22.2348895 C83.4057,21.8608895 82.7357,21.5618895 82.0297,21.3378895 C81.3237,21.1148895 80.6107,20.9598895 79.8897,20.8728895 C79.8367,20.8668895 79.7867,20.8648895 79.7337,20.8588895 L79.7337,21.2138895 C80.1867,21.3038895 80.5947,21.4258895 80.9387,21.5868895 C81.7087,21.9468895 82.3077,22.4618895 82.7327,23.1318895 C83.1577,23.8028895 83.4417,24.6098895 83.5867,25.5528895 C83.7307,26.4968895 83.8027,27.5528895 83.8027,28.7208895 C83.8027,29.1958895 83.7807,29.7038895 83.7377,30.2438895 C83.6947,30.7848895 83.6037,31.3248895 83.4677,31.8658895 C83.3307,32.4058895 83.1287,32.9218895 82.8627,33.4118895 C82.5957,33.9018895 82.2357,34.3378895 81.7817,34.7198895 C81.3277,35.1018895 80.7687,35.4038895 80.1057,35.6268895 C79.9877,35.6668895 79.8607,35.6998895 79.7337,35.7328895 L79.7337,36.1568895 C79.8757,36.1418895 80.0127,36.1328895 80.1607,36.1138895 C80.8157,36.0268895 81.4787,35.8718895 82.1487,35.6488895 C82.8187,35.4258895 83.4637,35.1268895 84.0837,34.7518895 C84.7037,34.3768895 85.2547,33.9018895 85.7377,33.3248895 C86.2207,32.7488895 86.6057,32.0638895 86.8937,31.2708895 C87.1827,30.4788895 87.3267,29.5568895 87.3267,28.5038895 C87.3267,27.4378895 87.1827,26.5078895 86.8937,25.7158895 C86.6057,24.9228895 86.2167,24.2388895 85.7267,23.6618895" id="Fill-69"></path>
                    <path d="M118.9005,25.1425895 C118.4315,24.1555895 117.8195,23.3155895 117.0625,22.6235895 C116.3065,21.9325895 115.4415,21.3995895 114.4685,21.0245895 C113.9895,20.8405895 113.5085,20.7075895 113.0255,20.6145895 L113.0255,20.9435895 C113.4195,21.0455895 113.7685,21.1865895 114.0585,21.3805895 C114.6705,21.7915895 115.1285,22.3465895 115.4305,23.0455895 C115.7335,23.7445895 115.9175,24.5515895 115.9815,25.4665895 C116.0465,26.3825895 116.0795,27.3445895 116.0795,28.3525895 C116.0795,29.4765895 116.0395,30.5175895 115.9605,31.4765895 C115.8805,32.4345895 115.6905,33.2635895 115.3875,33.9625895 C115.0855,34.6615895 114.6305,35.2095895 114.0255,35.6055895 C113.7445,35.7895895 113.4065,35.9255895 113.0255,36.0235895 L113.0255,36.3495895 C113.5635,36.2445895 114.0895,36.0875895 114.5985,35.8645895 C115.5715,35.4395895 116.4285,34.8595895 117.1715,34.1245895 C117.9135,33.3895895 118.5045,32.5365895 118.9435,31.5635895 C119.3825,30.5905895 119.6025,29.5635895 119.6025,28.4825895 C119.6025,27.2435895 119.3685,26.1305895 118.9005,25.1425895" id="Fill-70"></path>
                    <path d="M105.2447,22.6674895 C104.4667,23.3734895 103.8287,24.2234895 103.3317,25.2184895 C102.8337,26.2124895 102.5857,27.3224895 102.5857,28.5474895 C102.5857,29.6714895 102.8087,30.7164895 103.2557,31.6814895 C103.7027,32.6474895 104.2967,33.4864895 105.0387,34.2004895 C105.7817,34.9144895 106.6417,35.4764895 107.6227,35.8864895 C108.1247,36.0964895 108.6387,36.2464895 109.1637,36.3474895 L109.1637,36.0264895 C108.9687,35.9784895 108.7807,35.9234895 108.6057,35.8544895 C108.0227,35.6234895 107.5467,35.2164895 107.1797,34.6324895 C106.8117,34.0494895 106.5417,33.2634895 106.3687,32.2764895 C106.1957,31.2894895 106.1097,30.0464895 106.1097,28.5474895 C106.1097,27.4084895 106.1597,26.3644895 106.2607,25.4124895 C106.3617,24.4614895 106.5707,23.6404895 106.8877,22.9484895 C107.2047,22.2564895 107.6657,21.7194895 108.2707,21.3374895 C108.5307,21.1744895 108.8297,21.0484895 109.1637,20.9554895 L109.1637,20.6384895 C108.7337,20.7324895 108.2997,20.8614895 107.8607,21.0354895 C106.8947,21.4174895 106.0227,21.9614895 105.2447,22.6674895" id="Fill-71"></path>
                    <path d="M53.9015,24.3991895 L53.9065,24.3991895 L53.9065,36.1641895 C54.9385,35.8991895 55.8015,35.4671895 56.7035,34.9021895 C57.9525,34.1201895 58.8375,32.9511895 59.4255,31.8831895 C60.0125,30.8161895 60.3605,29.7101895 60.4695,28.5641895 C60.5775,27.4201895 60.6315,26.4611895 60.6315,25.6861895 L60.6315,0.714189476 L53.9015,0.714189476 L53.9015,24.3991895 Z" id="Fill-72"></path>
                    <polygon id="Fill-73" points="32.495 25.5925895 23.783 0.434589476 16.68 0.434589476 20.56 11.6025895 17.911 19.1145895 18.276 20.0985895 20.913 12.6195895 28.596 34.7365895 29.244 36.7065895 32.844 26.5495895 32.504 25.5675895"></polygon>
                    <path d="M108.3854,14.0539895 C108.1474,13.5499895 107.9964,12.9769895 107.9314,12.3349895 C107.8664,11.6949895 107.8344,11.0349895 107.8344,10.3569895 L107.8344,0.650989476 L107.8344,0.348989476 L104.6994,0.348989476 L104.6994,0.650989476 L104.6994,10.7469895 C104.6994,11.3949895 104.7714,12.0369895 104.9154,12.6709895 C105.0594,13.3049895 105.3584,13.8699895 105.8124,14.3679895 C106.2664,14.8649895 106.9184,15.2679895 107.7694,15.5779895 C108.3704,15.7969895 109.1134,15.9379895 109.9894,16.0019895 L109.9894,15.5329895 C109.7914,15.4629895 109.6044,15.3819895 109.4444,15.2749895 C108.9764,14.9659895 108.6234,14.5589895 108.3854,14.0539895" id="Fill-74"></path>
                    <path d="M81.5045,10.9616895 C81.7495,11.2966895 81.8715,11.7236895 81.8715,12.2396895 C81.8715,12.5196895 81.8155,12.8446895 81.7035,13.2146895 C81.5915,13.5846895 81.4005,13.9376895 81.1275,14.2726895 L81.4415,14.8166895 C81.7125,14.6466895 81.9655,14.4606895 82.1965,14.2516895 C82.7065,13.7906895 83.1005,13.2526895 83.3805,12.6386895 C83.6595,12.0236895 83.7995,11.3736895 83.7995,10.6896895 C83.7995,9.99068948 83.6705,9.40368948 83.4115,8.92868948 C83.1525,8.45368948 82.8145,8.04868948 82.3955,7.71368948 C81.9765,7.37868948 81.4975,7.10268948 80.9605,6.88568948 C80.4215,6.66968948 79.8705,6.47068948 79.3045,6.28868948 C78.7385,6.10668948 78.1865,5.93168948 77.6485,5.76468948 C77.1105,5.59668948 76.6325,5.39768948 76.2135,5.16768948 C75.7945,4.93668948 75.4555,4.66068948 75.1965,4.33968948 C74.9385,4.01868948 74.8095,3.61368948 74.8095,3.12368948 C74.8095,2.80268948 74.8855,2.48868948 75.0395,2.18068948 C75.1295,2.00168948 75.2465,1.83268948 75.3845,1.67168948 L75.1535,1.16568948 C74.9815,1.28268948 74.8145,1.40668948 74.6625,1.54168948 C74.2155,1.94068948 73.8665,2.39768948 73.6145,2.91468948 C73.3635,3.43168948 73.2375,3.96968948 73.2375,4.52768948 C73.2375,5.28268948 73.3595,5.91168948 73.6045,6.41368948 C73.8485,6.91768948 74.1735,7.33968948 74.5785,7.68168948 C74.9835,8.02468948 75.4445,8.30368948 75.9615,8.52068948 C76.4785,8.73668948 77.0095,8.92568948 77.5545,9.08568948 C78.0995,9.24668948 78.6295,9.40368948 79.1475,9.55768948 C79.6635,9.71168948 80.1255,9.89968948 80.5305,10.1236895 C80.9355,10.3466895 81.2605,10.6266895 81.5045,10.9616895" id="Fill-75"></path>
                    <polygon id="Fill-76" points="87.1052 0.775489476 100.6592 0.775489476 100.6592 0.271489476 87.1052 0.271489476"></polygon>
                    <polygon id="Fill-77" points="119.3312 7.97248948 123.8072 7.97248948 123.8072 7.46848948 119.3312 7.46848948"></polygon>
                    <path d="M113.941,15.7827895 L113.76,15.3127895 C115.919,14.4797895 115.919,11.1877895 115.919,9.41978948 L115.919,0.348789476 L116.423,0.348789476 L116.423,9.41978948 C116.423,11.3087895 116.423,14.8247895 113.941,15.7827895" id="Fill-78"></path>
                    <polygon id="Fill-79" points="41.3644 0.434089476 34.7474 19.2020895 35.1124 20.1860895 42.0764 0.434089476"></polygon>
                    <path d="M12.1693,46.5505895 C12.1283,48.1235895 12.0683,49.8365895 11.8673,51.5295895 L20.8573,51.5295895 L20.8573,51.9325895 C20.4743,58.7465895 20.1113,61.1655895 19.3453,61.9305895 C19.0023,62.2935895 18.6603,62.3945895 17.9943,62.4155895 C17.3093,62.4355895 15.8583,62.3945895 14.4273,62.2735895 C14.4063,62.0715895 14.3463,61.8505895 14.2253,61.6695895 C15.8383,61.8305895 17.3903,61.8305895 17.8743,61.8305895 C18.3773,61.8505895 18.6393,61.8105895 18.8213,61.6085895 C19.5063,60.9835895 19.8693,58.6045895 20.2523,52.1145895 L11.7863,52.1145895 C11.2013,56.3075895 9.6903,60.3795895 5.4773,62.5765895 C5.3763,62.4555895 5.1543,62.2935895 5.0333,62.1935895 C11.0603,59.1495895 11.4433,52.0335895 11.5643,46.5505895 L5.3763,46.5505895 L5.3763,45.9665895 L22.9133,45.9665895 L22.9133,46.5505895 L12.1693,46.5505895 Z" id="Fill-80"></path>
                    <path d="M46.922,49.4736895 C46.781,48.8686895 46.439,47.9216895 46.116,47.1756895 L46.68,47.0346895 C46.983,47.7606895 47.366,48.6876895 47.507,49.2716895 L46.922,49.4736895 Z M45.451,56.5896895 L53.01,56.5896895 L53.01,54.7356895 L45.451,54.7356895 L45.451,56.5896895 Z M45.451,54.1506895 L53.01,54.1506895 L53.01,52.3566895 L45.451,52.3566895 L45.451,54.1506895 Z M54.239,46.6516895 L44.362,46.6516895 L44.362,46.0666895 L49.099,46.0666895 C48.918,45.5426895 48.635,44.8776895 48.353,44.3536895 L48.878,44.2326895 C49.2,44.7966895 49.563,45.5626895 49.724,46.0666895 L54.239,46.0666895 L54.239,46.6516895 Z M54.784,50.3196895 L43.737,50.3196895 L43.737,49.7356895 L50.49,49.7356895 C50.873,48.9896895 51.337,47.8606895 51.578,47.1156895 L52.203,47.3566895 C51.861,48.1426895 51.458,49.0506895 51.115,49.7356895 L54.784,49.7356895 L54.784,50.3196895 Z M53.191,61.6896895 C53.554,61.6896895 53.998,61.6696895 54.179,61.6086895 C54.38,61.5476895 54.562,61.3666895 54.643,61.1246895 C54.703,60.8026895 54.723,60.1166895 54.743,59.2096895 C54.904,59.3506895 55.106,59.4516895 55.308,59.4916895 C55.288,60.3386895 55.227,61.2256895 55.126,61.5276895 C55.026,61.8306895 54.784,61.9916895 54.481,62.0716895 C54.199,62.1526895 53.635,62.1926895 53.252,62.1926895 L51.8,62.1926895 C51.397,62.1926895 50.893,62.1526895 50.591,61.9916895 C50.288,61.8506895 50.188,61.6286895 50.188,60.7016895 L50.188,57.1736895 L47.99,57.1736895 C47.688,60.3586895 46.559,61.7696895 43.012,62.5566895 C42.951,62.3946895 42.77,62.1526895 42.629,62.0316895 C46.076,61.3466895 47.124,60.0566895 47.386,57.1736895 L44.866,57.1736895 L44.866,51.7716895 L53.594,51.7716895 L53.594,57.1736895 L50.772,57.1736895 L50.772,60.9026895 C50.772,61.3066895 50.813,61.5276895 51.034,61.6086895 C51.216,61.6696895 51.437,61.6896895 51.8,61.6896895 L53.191,61.6896895 Z M43.112,57.2746895 C41.097,58.0606895 39.04,58.8676895 37.468,59.4916895 L37.246,58.8676895 C38.013,58.6256895 38.96,58.2626895 40.008,57.8596895 L40.008,49.9166895 L37.529,49.9166895 L37.529,49.3326895 L40.008,49.3326895 L40.008,44.4946895 L40.593,44.4946895 L40.593,49.3326895 L42.79,49.3326895 L42.79,49.9166895 L40.593,49.9166895 L40.593,57.6376895 L42.992,56.7306895 L43.112,57.2746895 Z" id="Fill-81"></path>
                    <path d="M77.9259,53.9487895 C78.7519,55.9647895 80.0429,57.6977895 81.6959,59.0887895 C83.3889,57.7387895 84.7999,56.0247895 85.6259,53.9487895 L77.9259,53.9487895 Z M86.4329,53.5457895 C85.5659,56.0047895 84.0339,57.9597895 82.1789,59.4517895 C83.7509,60.6407895 85.6259,61.5277895 87.7629,62.0117895 C87.6019,62.1527895 87.4199,62.3747895 87.3399,62.5557895 C85.1819,62.0317895 83.3079,61.1047895 81.6959,59.8547895 C80.0629,61.0847895 78.2079,61.9717895 76.3939,62.5157895 C76.3329,62.3337895 76.1719,62.1127895 76.0309,61.9717895 C77.7849,61.4677895 79.5989,60.6207895 81.1919,59.4517895 C79.4979,57.9807895 78.1879,56.1257895 77.3209,53.9487895 L76.3739,53.9487895 L76.3739,53.3637895 L85.9279,53.3637895 L86.0299,53.3237895 L86.4329,53.5457895 Z M79.4979,47.3977895 C79.4979,49.1707895 78.8529,51.2477895 75.9299,52.7187895 C75.8499,52.5777895 75.6679,52.3357895 75.5469,52.2357895 C78.3489,50.8847895 78.9129,49.0097895 78.9129,47.3977895 L78.9129,45.1397895 L84.5169,45.1397895 L84.5169,50.0787895 C84.5169,50.6427895 84.5779,50.7837895 84.9009,50.7837895 L86.6539,50.7837895 C86.8959,50.7837895 87.2389,50.7637895 87.4609,50.7237895 C87.4809,50.8847895 87.5209,51.1667895 87.5609,51.3077895 C87.3599,51.3487895 86.9969,51.3687895 86.6749,51.3687895 L84.9209,51.3687895 C84.1339,51.3687895 83.9329,51.0657895 83.9329,50.0587895 L83.9329,45.7247895 L79.4979,45.7247895 L79.4979,47.3977895 Z M74.3979,48.2437895 C73.7929,47.3977895 72.5239,46.1267895 71.4559,45.1997895 L71.8789,44.8167895 C72.9669,45.7037895 74.2169,46.9737895 74.8219,47.7607895 L74.3979,48.2437895 Z M76.2129,58.7057895 C76.2729,58.8667895 76.3539,59.0887895 76.4139,59.2097895 C72.9869,61.3467895 72.5639,61.6287895 72.3219,61.9307895 C72.2209,61.7897895 72.0199,61.5477895 71.8789,61.4067895 C72.1809,61.2257895 72.8869,60.6207895 72.8869,59.7337895 L72.8869,51.3487895 L69.6209,51.3487895 L69.6209,50.7637895 L73.4709,50.7637895 L73.4709,60.3587895 L76.2129,58.7057895 Z" id="Fill-82"></path>
                    <path d="M119.9762,51.9128895 L114.3922,51.9128895 L114.3922,62.4548895 L113.8082,62.4548895 L113.8082,51.9128895 L108.4052,51.9128895 L108.4052,51.3278895 L113.8082,51.3278895 L113.8082,44.3328895 L114.3922,44.3328895 L114.3922,51.3278895 L119.9762,51.3278895 L119.9762,51.9128895 Z M107.0952,48.3448895 C106.4502,47.4978895 105.1402,46.1268895 104.0312,45.1798895 L104.4542,44.8168895 C105.5832,45.7448895 106.8732,47.0348895 107.4982,47.8808895 L107.0952,48.3448895 Z M108.8692,58.2418895 C108.9302,58.3828895 109.0502,58.6258895 109.1112,58.7258895 C105.6032,61.1448895 105.1802,61.4468895 104.9182,61.7698895 C104.8582,61.6288895 104.6562,61.3868895 104.5152,61.2458895 C104.7972,61.0638895 105.3822,60.5808895 105.3822,59.7338895 L105.3822,51.3488895 L101.9142,51.3488895 L101.9142,50.7638895 L105.9662,50.7638895 L105.9662,60.1568895 L108.8692,58.2418895 Z" id="Fill-83"></path>
                </g>
            </g>
        </g>
    </g>
</svg>