<?xml version="1.0" encoding="UTF-8"?>
<svg width="124px" height="63px" viewBox="0 0 124 63" version="1.1" xmlns="http://www.w3.org/2000/svg" xmlns:xlink="http://www.w3.org/1999/xlink">
    <title>Group 29</title>
    <defs>
        <polygon id="path-1" points="0 62.577 123.808 62.577 123.808 0 0 0"></polygon>
    </defs>
    <g id="Page-1" stroke="none" stroke-width="1" fill="none" fill-rule="evenodd">
        <g id="Group-29">
            <path d="M49.998,36.3813 C46.732,35.9193 44.747,34.2733 43.656,32.9733 C42.472,31.5623 42.066,30.2693 42.049,30.2143 L42.691,30.0163 C42.753,30.2153 44.269,34.8913 50.092,35.7163 L49.998,36.3813 Z" id="Fill-1" fill="#000000"></path>
            <path d="M78.4214,15.7755 C74.5844,15.7755 73.1844,13.2845 73.1274,13.1795 L73.5694,12.9375 C73.6224,13.0325 74.8954,15.2715 78.4214,15.2715 L78.4214,15.7755 Z" id="Fill-3" fill="#000000"></path>
            <path d="M82.6106,3.1283 C80.8736,0.4323 78.4696,0.5043 78.3616,0.5053 L78.3386,0.0023 C78.4476,-0.0037 81.1336,-0.0957 83.0346,2.8553 L82.6106,3.1283 Z" id="Fill-5" fill="#000000"></path>
            <polygon id="Fill-7" fill="#000000" points="15.6924 25.5472 6.9834 0.4352 0.0004 0.4352 11.7464 34.7372 12.3934 36.7072 16.0294 26.4702 15.7004 25.5232"></polygon>
            <polygon id="Fill-9" fill="#000000" points="92.3149 21.1117 92.3149 35.8987 92.3149 36.2007 95.4499 36.2007 95.4499 35.8987 95.4499 21.1117 95.4499 20.8097 92.3149 20.8097"></polygon>
            <mask id="mask-2" fill="white">
                <use xlink:href="#path-1"></use>
            </mask>
            <g id="Clip-12"></g>
            <polygon id="Fill-11" fill="#000000" mask="url(#mask-2)" points="92.315 15.741 95.45 15.741 95.45 3.595 92.315 3.595"></polygon>
            <path d="M73.0139,36.201 C73.8349,36.201 76.1539,36.228 76.1539,36.228 L76.1539,20.809 L73.0139,20.809 L73.0139,36.201 Z" id="Fill-13" fill="#000000" mask="url(#mask-2)"></path>
            <path d="M85.7268,23.6627 C85.2368,23.0867 84.6748,22.6107 84.0408,22.2357 C83.4068,21.8617 82.7368,21.5627 82.0308,21.3387 C81.3238,21.1157 80.6108,20.9607 79.8898,20.8737 C79.8368,20.8677 79.7868,20.8657 79.7338,20.8597 L79.7338,21.2147 C80.1878,21.3047 80.5948,21.4267 80.9388,21.5877 C81.7098,21.9477 82.3078,22.4627 82.7328,23.1337 C83.1578,23.8037 83.4428,24.6107 83.5868,25.5537 C83.7308,26.4987 83.8028,27.5537 83.8028,28.7217 C83.8028,29.1967 83.7818,29.7047 83.7378,30.2447 C83.6948,30.7857 83.6048,31.3257 83.4678,31.8667 C83.3308,32.4067 83.1288,32.9227 82.8628,33.4127 C82.5958,33.9027 82.2358,34.3387 81.7818,34.7207 C81.3278,35.1027 80.7688,35.4047 80.1068,35.6277 C79.9878,35.6677 79.8608,35.7007 79.7338,35.7337 L79.7338,36.1577 C79.8768,36.1427 80.0128,36.1337 80.1608,36.1147 C80.8158,36.0277 81.4788,35.8737 82.1498,35.6497 C82.8198,35.4267 83.4648,35.1277 84.0838,34.7527 C84.7038,34.3777 85.2548,33.9027 85.7378,33.3257 C86.2208,32.7497 86.6058,32.0647 86.8948,31.2717 C87.1828,30.4797 87.3268,29.5577 87.3268,28.5047 C87.3268,27.4387 87.1828,26.5097 86.8948,25.7167 C86.6058,24.9237 86.2168,24.2397 85.7268,23.6627" id="Fill-14" fill="#000000" mask="url(#mask-2)"></path>
            <path d="M118.9006,25.1435 C118.4316,24.1565 117.8196,23.3165 117.0626,22.6245 C116.3066,21.9335 115.4416,21.4005 114.4686,21.0255 C113.9906,20.8415 113.5086,20.7085 113.0256,20.6155 L113.0256,20.9445 C113.4196,21.0465 113.7686,21.1885 114.0586,21.3815 C114.6706,21.7925 115.1286,22.3485 115.4306,23.0465 C115.7336,23.7455 115.9176,24.5525 115.9826,25.4675 C116.0476,26.3835 116.0796,27.3455 116.0796,28.3535 C116.0796,29.4775 116.0396,30.5195 115.9606,31.4775 C115.8816,32.4365 115.6906,33.2645 115.3876,33.9635 C115.0856,34.6625 114.6306,35.2105 114.0256,35.6065 C113.7446,35.7905 113.4066,35.9265 113.0256,36.0245 L113.0256,36.3505 C113.5636,36.2455 114.0896,36.0885 114.5986,35.8655 C115.5716,35.4415 116.4286,34.8605 117.1716,34.1255 C117.9136,33.3905 118.5046,32.5375 118.9436,31.5645 C119.3836,30.5915 119.6036,29.5645 119.6036,28.4835 C119.6036,27.2445 119.3686,26.1315 118.9006,25.1435" id="Fill-15" fill="#000000" mask="url(#mask-2)"></path>
            <path d="M105.2451,22.6684 C104.4671,23.3744 103.8291,24.2244 103.3321,25.2194 C102.8351,26.2134 102.5861,27.3234 102.5861,28.5484 C102.5861,29.6724 102.8091,30.7174 103.2561,31.6824 C103.7031,32.6484 104.2971,33.4874 105.0401,34.2014 C105.7821,34.9154 106.6431,35.4774 107.6231,35.8874 C108.1251,36.0974 108.6391,36.2474 109.1641,36.3494 L109.1641,36.0274 C108.9691,35.9794 108.7811,35.9244 108.6071,35.8554 C108.0231,35.6244 107.5471,35.2174 107.1801,34.6334 C106.8121,34.0504 106.5421,33.2644 106.3691,32.2774 C106.1961,31.2904 106.1101,30.0474 106.1101,28.5484 C106.1101,27.4104 106.1601,26.3654 106.2611,25.4134 C106.3621,24.4624 106.5711,23.6414 106.8881,22.9494 C107.2041,22.2574 107.6661,21.7214 108.2711,21.3384 C108.5311,21.1754 108.8301,21.0494 109.1641,20.9564 L109.1641,20.6394 C108.7341,20.7334 108.2991,20.8624 107.8601,21.0364 C106.8951,21.4184 106.0231,21.9624 105.2451,22.6684" id="Fill-16" fill="#000000" mask="url(#mask-2)"></path>
            <path d="M53.9019,24.4002 L53.9069,24.4002 L53.9069,36.1652 C54.9389,35.8992 55.8019,35.4682 56.7039,34.9032 C57.9529,34.1212 58.8379,32.9522 59.4259,31.8842 C60.0129,30.8172 60.3609,29.7112 60.4699,28.5652 C60.5779,27.4212 60.6319,26.4612 60.6319,25.6872 L60.6319,0.7152 L53.9019,0.7152 L53.9019,24.4002 Z" id="Fill-17" fill="#000000" mask="url(#mask-2)"></path>
            <polygon id="Fill-18" fill="#000000" mask="url(#mask-2)" points="32.4954 25.5934 23.7834 0.4354 16.6804 0.4354 20.5594 11.6034 17.9114 19.1154 18.2764 20.0994 20.9134 12.6204 28.5964 34.7374 29.2444 36.7074 32.8444 26.5504 32.5044 25.5684"></polygon>
            <path d="M108.3855,14.0548 C108.1475,13.5508 107.9965,12.9778 107.9315,12.3368 C107.8665,11.6958 107.8345,11.0358 107.8345,10.3588 L107.8345,0.6518 L107.8345,0.3498 L104.6995,0.3498 L104.6995,0.6518 L104.6995,10.7478 C104.6995,11.3958 104.7715,12.0378 104.9165,12.6718 C105.0595,13.3058 105.3585,13.8708 105.8125,14.3688 C106.2675,14.8658 106.9185,15.2688 107.7695,15.5788 C108.3715,15.7988 109.1135,15.9388 109.9895,16.0028 L109.9895,15.5338 C109.7915,15.4638 109.6045,15.3828 109.4445,15.2758 C108.9765,14.9668 108.6235,14.5598 108.3855,14.0548" id="Fill-19" fill="#000000" mask="url(#mask-2)"></path>
            <path d="M81.5051,10.9625 C81.7491,11.2975 81.8721,11.7245 81.8721,12.2405 C81.8721,12.5205 81.8161,12.8455 81.7041,13.2155 C81.5921,13.5855 81.4001,13.9385 81.1281,14.2735 L81.1281,14.2735 L81.4421,14.8175 C81.7121,14.6475 81.9661,14.4615 82.1961,14.2525 C82.7061,13.7915 83.1011,13.2545 83.3801,12.6395 C83.6601,12.0245 83.8001,11.3745 83.8001,10.6905 C83.8001,9.9915 83.6701,9.4045 83.4121,8.9295 C83.1531,8.4545 82.8151,8.0495 82.3961,7.7145 C81.9761,7.3795 81.4981,7.1035 80.9601,6.8865 C80.4221,6.6705 79.8701,6.4715 79.3051,6.2895 C78.7391,6.1075 78.1871,5.9335 77.6491,5.7655 C77.1111,5.5975 76.6331,5.3985 76.2131,5.1685 C75.7951,4.9375 75.4561,4.6625 75.1971,4.3405 C74.9391,4.0195 74.8091,3.6145 74.8091,3.1245 C74.8091,2.8035 74.8861,2.4895 75.0401,2.1815 C75.1301,2.0025 75.2471,1.8335 75.3841,1.6725 L75.1541,1.1665 C74.9811,1.2835 74.8151,1.4075 74.6631,1.5425 C74.2161,1.9415 73.8661,2.3985 73.6151,2.9155 C73.3641,3.4325 73.2381,3.9705 73.2381,4.5285 C73.2381,5.2835 73.3601,5.9125 73.6041,6.4155 C73.8491,6.9185 74.1741,7.3405 74.5791,7.6825 C74.9841,8.0255 75.4451,8.3045 75.9621,8.5215 C76.4791,8.7385 77.0101,8.9265 77.5551,9.0865 C78.0991,9.2475 78.6301,9.4045 79.1471,9.5585 C79.6641,9.7125 80.1251,9.9005 80.5301,10.1245 C80.9351,10.3475 81.2601,10.6275 81.5051,10.9625" id="Fill-20" fill="#000000" mask="url(#mask-2)"></path>
            <polygon id="Fill-21" fill="#000000" mask="url(#mask-2)" points="87.105 0.776 100.659 0.776 100.659 0.272 87.105 0.272"></polygon>
            <polygon id="Fill-22" fill="#000000" mask="url(#mask-2)" points="119.332 7.973 123.808 7.973 123.808 7.469 119.332 7.469"></polygon>
            <path d="M113.9412,15.7837 L113.7602,15.3137 C115.9202,14.4807 115.9202,11.1887 115.9202,9.4207 L115.9202,0.3497 L116.4232,0.3497 L116.4232,9.4207 C116.4232,11.3097 116.4232,14.8257 113.9412,15.7837" id="Fill-23" fill="#000000" mask="url(#mask-2)"></path>
            <polygon id="Fill-24" fill="#000000" mask="url(#mask-2)" points="41.3647 0.4351 34.7477 19.2031 35.1127 20.1871 42.0767 0.4351"></polygon>
            <path d="M12.1694,46.5515 C12.1294,48.1245 12.0684,49.8375 11.8674,51.5305 L20.8574,51.5305 L20.8574,51.9335 C20.4744,58.7475 20.1114,61.1665 19.3454,61.9315 C19.0024,62.2945 18.6604,62.3955 17.9944,62.4155 C17.3094,62.4355 15.8584,62.3955 14.4274,62.2745 C14.4064,62.0725 14.3464,61.8515 14.2254,61.6705 C15.8384,61.8315 17.3904,61.8315 17.8744,61.8315 C18.3784,61.8515 18.6394,61.8115 18.8214,61.6095 C19.5064,60.9845 19.8694,58.6065 20.2524,52.1155 L11.7864,52.1155 C11.2014,56.3085 9.6904,60.3795 5.4774,62.5775 C5.3764,62.4565 5.1544,62.2945 5.0334,62.1945 C11.0604,59.1505 11.4434,52.0345 11.5644,46.5515 L5.3764,46.5515 L5.3764,45.9675 L22.9134,45.9675 L22.9134,46.5515 L12.1694,46.5515 Z" id="Fill-25" fill="#000000" mask="url(#mask-2)"></path>
            <path d="M46.9224,49.4745 C46.7814,48.8695 46.4384,47.9225 46.1164,47.1765 L46.6804,47.0355 C46.9834,47.7615 47.3664,48.6885 47.5074,49.2725 L46.9224,49.4745 Z M45.4514,56.5905 L53.0104,56.5905 L53.0104,54.7365 L45.4514,54.7365 L45.4514,56.5905 Z M45.4514,54.1515 L53.0104,54.1515 L53.0104,52.3575 L45.4514,52.3575 L45.4514,54.1515 Z M54.2394,46.6525 L44.3624,46.6525 L44.3624,46.0675 L49.0994,46.0675 C48.9184,45.5435 48.6354,44.8785 48.3534,44.3545 L48.8784,44.2335 C49.2004,44.7975 49.5634,45.5635 49.7244,46.0675 L54.2394,46.0675 L54.2394,46.6525 Z M54.7844,50.3205 L43.7374,50.3205 L43.7374,49.7365 L50.4904,49.7365 C50.8734,48.9905 51.3374,47.8615 51.5784,47.1165 L52.2034,47.3575 C51.8614,48.1445 51.4584,49.0515 51.1154,49.7365 L54.7844,49.7365 L54.7844,50.3205 Z M53.1914,61.6905 C53.5544,61.6905 53.9974,61.6705 54.1794,61.6095 C54.3804,61.5495 54.5624,61.3675 54.6424,61.1255 C54.7034,60.8035 54.7234,60.1175 54.7434,59.2105 C54.9044,59.3515 55.1064,59.4525 55.3084,59.4925 C55.2884,60.3395 55.2274,61.2265 55.1264,61.5285 C55.0264,61.8315 54.7844,61.9925 54.4814,62.0725 C54.1994,62.1535 53.6354,62.1945 53.2524,62.1945 L51.8004,62.1945 C51.3974,62.1945 50.8934,62.1535 50.5914,61.9925 C50.2884,61.8515 50.1884,61.6295 50.1884,60.7025 L50.1884,57.1745 L47.9904,57.1745 C47.6884,60.3595 46.5594,61.7705 43.0114,62.5565 C42.9514,62.3955 42.7704,62.1535 42.6294,62.0325 C46.0764,61.3475 47.1244,60.0575 47.3864,57.1745 L44.8664,57.1745 L44.8664,51.7725 L53.5944,51.7725 L53.5944,57.1745 L50.7724,57.1745 L50.7724,60.9035 C50.7724,61.3075 50.8134,61.5285 51.0344,61.6095 C51.2154,61.6705 51.4374,61.6905 51.8004,61.6905 L53.1914,61.6905 Z M43.1124,57.2755 C41.0974,58.0615 39.0404,58.8685 37.4684,59.4925 L37.2464,58.8685 C38.0134,58.6265 38.9604,58.2635 40.0084,57.8605 L40.0084,49.9175 L37.5294,49.9175 L37.5294,49.3335 L40.0084,49.3335 L40.0084,44.4955 L40.5934,44.4955 L40.5934,49.3335 L42.7904,49.3335 L42.7904,49.9175 L40.5934,49.9175 L40.5934,57.6385 L42.9914,56.7315 L43.1124,57.2755 Z" id="Fill-26" fill="#000000" mask="url(#mask-2)"></path>
            <path d="M77.9263,53.9496 C78.7523,55.9656 80.0423,57.6986 81.6963,59.0896 C83.3893,57.7396 84.8003,56.0256 85.6263,53.9496 L77.9263,53.9496 Z M86.4333,53.5466 C85.5663,56.0056 84.0343,57.9606 82.1793,59.4526 C83.7513,60.6416 85.6263,61.5286 87.7633,62.0126 C87.6023,62.1536 87.4203,62.3756 87.3393,62.5566 C85.1833,62.0326 83.3083,61.1056 81.6963,59.8556 C80.0623,61.0856 78.2083,61.9726 76.3943,62.5166 C76.3333,62.3356 76.1723,62.1136 76.0313,61.9726 C77.7853,61.4686 79.5993,60.6216 81.1923,59.4526 C79.4983,57.9816 78.1883,56.1266 77.3213,53.9496 L76.3743,53.9496 L76.3743,53.3646 L85.9293,53.3646 L86.0293,53.3246 L86.4333,53.5466 Z M79.4983,47.3986 C79.4983,49.1716 78.8533,51.2486 75.9303,52.7196 C75.8503,52.5786 75.6683,52.3366 75.5473,52.2366 C78.3493,50.8856 78.9143,49.0106 78.9143,47.3986 L78.9143,45.1406 L84.5183,45.1406 L84.5183,50.0796 C84.5183,50.6436 84.5783,50.7846 84.9003,50.7846 L86.6543,50.7846 C86.8963,50.7846 87.2393,50.7646 87.4603,50.7246 C87.4803,50.8856 87.5213,51.1676 87.5613,51.3086 C87.3603,51.3496 86.9973,51.3696 86.6743,51.3696 L84.9213,51.3696 C84.1343,51.3696 83.9333,51.0666 83.9333,50.0596 L83.9333,45.7256 L79.4983,45.7256 L79.4983,47.3986 Z M74.3983,48.2446 C73.7933,47.3986 72.5243,46.1286 71.4563,45.2006 L71.8793,44.8176 C72.9673,45.7046 74.2173,46.9746 74.8223,47.7616 L74.3983,48.2446 Z M76.2133,58.7066 C76.2733,58.8686 76.3543,59.0896 76.4143,59.2106 C72.9873,61.3476 72.5643,61.6296 72.3223,61.9316 C72.2213,61.7906 72.0203,61.5486 71.8793,61.4076 C72.1813,61.2266 72.8873,60.6216 72.8873,59.7346 L72.8873,51.3496 L69.6213,51.3496 L69.6213,50.7646 L73.4713,50.7646 L73.4713,60.3596 L76.2133,58.7066 Z" id="Fill-27" fill="#000000" mask="url(#mask-2)"></path>
            <path d="M119.9763,51.9138 L114.3923,51.9138 L114.3923,62.4558 L113.8083,62.4558 L113.8083,51.9138 L108.4053,51.9138 L108.4053,51.3288 L113.8083,51.3288 L113.8083,44.3338 L114.3923,44.3338 L114.3923,51.3288 L119.9763,51.3288 L119.9763,51.9138 Z M107.0953,48.3458 C106.4503,47.4988 105.1403,46.1278 104.0313,45.1808 L104.4553,44.8178 C105.5833,45.7448 106.8733,47.0358 107.4983,47.8818 L107.0953,48.3458 Z M108.8693,58.2428 C108.9303,58.3838 109.0503,58.6268 109.1113,58.7268 C105.6043,61.1458 105.1803,61.4478 104.9183,61.7708 C104.8583,61.6298 104.6563,61.3878 104.5153,61.2468 C104.7973,61.0648 105.3823,60.5818 105.3823,59.7348 L105.3823,51.3498 L101.9153,51.3498 L101.9153,50.7648 L105.9663,50.7648 L105.9663,60.1588 L108.8693,58.2428 Z" id="Fill-28" fill="#000000" mask="url(#mask-2)"></path>
        </g>
    </g>
</svg>